<svg width="140" height="51" viewBox="0 0 140 51" fill="none" xmlns="http://www.w3.org/2000/svg">
<path d="M26.75 4.05C25.3833 4.78333 23.9333 6.16667 22.4 8.2C20.8667 10.2 19.3167 12.7667 17.75 15.9C18.95 16.1333 20.05 16.4 21.05 16.7C22.0833 17 23.0167 17.3167 23.85 17.65L26.75 4.05ZM30.65 0.499997C31.35 0.499997 32.05 0.566664 32.75 0.699997C33.45 0.799998 34.0667 0.966665 34.6 1.2L26.75 38H19.55L23.4 19.85C22.2333 19.3167 21.1333 18.9167 20.1 18.65C19.0667 18.35 17.9333 18.15 16.7 18.05C14.8 22.1833 13.2333 26.3833 12 30.65C10.8 34.9167 10.2 38.3333 10.2 40.9C10.2 41.5 10.25 42.0167 10.35 42.45C10.4833 42.9167 10.6667 43.3333 10.9 43.7C8.36667 43.7 6.61667 43.2667 5.65 42.4C4.68333 41.5333 4.2 40.2 4.2 38.4C4.2 36.1667 4.86667 33.1833 6.2 29.45C7.56667 25.7167 9.35 21.9167 11.55 18.05C9.85 18.15 8.51667 18.4167 7.55 18.85C6.61667 19.2833 6 19.8833 5.7 20.65C5.83333 20.65 5.96667 20.8333 6.1 21.2C6.26667 21.5333 6.35 21.8667 6.35 22.2C6.35 22.7667 6.08333 23.2333 5.55 23.6C5.01667 23.9667 4.35 24.15 3.55 24.15C2.61667 24.15 1.86667 23.9 1.3 23.4C0.733333 22.8667 0.45 22.15 0.45 21.25C0.45 19.5167 1.41667 18.0667 3.35 16.9C5.31667 15.7 7.75 15.1 10.65 15.1C10.9833 15.1 11.3667 15.1167 11.8 15.15C12.2333 15.15 12.7167 15.1833 13.25 15.25C16.1833 10.6167 19.1667 7 22.2 4.4C25.2333 1.8 28.05 0.499997 30.65 0.499997ZM40.1484 29.55C40.1484 30.85 40.3318 31.8333 40.6984 32.5C41.0651 33.1333 41.7151 33.45 42.6484 33.45C43.4818 33.45 44.2984 33.0667 45.0984 32.3C45.8984 31.5 46.4484 30.5 46.7484 29.3V29.05L49.1984 17.6C49.0984 17.0667 48.8651 16.65 48.4984 16.35C48.1651 16.0167 47.7151 15.85 47.1484 15.85C45.3151 15.85 43.6818 17.3833 42.2484 20.45C40.8484 23.5167 40.1484 26.55 40.1484 29.55ZM49.6484 15.3V15.5L52.0984 4L59.4984 3L53.7484 30C53.6818 30.3 53.6318 30.5833 53.5984 30.85C53.5651 31.0833 53.5484 31.3333 53.5484 31.6C53.5484 32.2667 53.6984 32.75 53.9984 33.05C54.3318 33.3167 54.8651 33.45 55.5984 33.45C56.4651 33.45 57.2484 33.0667 57.9484 32.3C58.6484 31.5333 59.2151 30.45 59.6484 29.05H61.7484C60.7151 32.0167 59.3651 34.25 57.6984 35.75C56.0651 37.25 54.0651 38 51.6984 38C50.3318 38 49.2151 37.6333 48.3484 36.9C47.5151 36.1333 46.9984 35.0667 46.7984 33.7C45.7984 35.2333 44.6818 36.3833 43.4484 37.15C42.2151 37.9167 40.8651 38.3 39.3984 38.3C37.3318 38.3 35.6984 37.6 34.4984 36.2C33.3318 34.8 32.7484 32.8167 32.7484 30.25C32.7484 28.3833 33.0318 26.4333 33.5984 24.4C34.1651 22.3667 34.9484 20.5167 35.9484 18.85C37.1818 16.8833 38.6151 15.3833 40.2484 14.35C41.8818 13.2833 43.6651 12.75 45.5984 12.75C46.8984 12.75 47.8984 12.9833 48.5984 13.45C49.2984 13.8833 49.6484 14.5 49.6484 15.3ZM72.1156 6.35C72.1156 7.45 71.7156 8.38333 70.9156 9.15C70.149 9.91667 69.2156 10.3 68.1156 10.3C67.0156 10.3 66.0823 9.91667 65.3156 9.15C64.549 8.38333 64.1656 7.45 64.1656 6.35C64.1656 5.25 64.549 4.31667 65.3156 3.55C66.0823 2.75 67.0156 2.35 68.1156 2.35C69.2156 2.35 70.149 2.75 70.9156 3.55C71.7156 4.31667 72.1156 5.25 72.1156 6.35ZM59.3656 32.3C59.3656 31.8667 59.399 31.3833 59.4656 30.85C59.5323 30.2833 59.6323 29.6833 59.7656 29.05L63.1656 13H70.3656L66.7656 30C66.699 30.3 66.649 30.5833 66.6156 30.85C66.5823 31.0833 66.5656 31.3333 66.5656 31.6C66.5656 32.2667 66.7156 32.75 67.0156 33.05C67.349 33.3167 67.8823 33.45 68.6156 33.45C69.549 33.45 70.4323 33.05 71.2656 32.25C72.099 31.4167 72.7156 30.35 73.1156 29.05H75.2156C74.149 32.0833 72.7156 34.3833 70.9156 35.95C69.1156 37.5167 67.049 38.3 64.7156 38.3C63.049 38.3 61.7323 37.7833 60.7656 36.75C59.8323 35.6833 59.3656 34.2 59.3656 32.3ZM74.8457 13H76.4957L77.9957 6.1L85.3957 5.1L83.6957 13H86.6957L86.2957 15H83.2957L80.0957 30C80.029 30.3 79.979 30.5833 79.9457 30.85C79.9124 31.0833 79.8957 31.3333 79.8957 31.6C79.8957 32.2667 80.0457 32.75 80.3457 33.05C80.679 33.3167 81.2124 33.45 81.9457 33.45C82.879 33.45 83.7624 33.05 84.5957 32.25C85.429 31.4167 86.0457 30.35 86.4457 29.05H88.5457C87.479 32.0833 86.0457 34.3833 84.2457 35.95C82.4457 37.5167 80.379 38.3 78.0457 38.3C76.379 38.3 75.0624 37.7833 74.0957 36.75C73.1624 35.6833 72.6957 34.2 72.6957 32.3C72.6957 31.8667 72.729 31.3833 72.7957 30.85C72.8624 30.2833 72.9624 29.6833 73.0957 29.05L76.0957 15H74.4457L74.8457 13ZM94.7758 33.45C95.6091 33.45 96.3591 33.1 97.0258 32.4C97.6924 31.7 98.2424 30.6833 98.6758 29.35L102.176 13H109.376L104.426 36.2C106.092 35.6 107.392 34.7667 108.326 33.7C109.292 32.6 110.092 31.05 110.726 29.05H112.826C112.059 31.5833 110.959 33.6167 109.526 35.15C108.126 36.6833 106.276 37.7667 103.976 38.4L103.226 42C102.626 44.8 101.576 46.9167 100.076 48.35C98.5758 49.7833 96.6258 50.5 94.2258 50.5C92.5258 50.5 91.1591 50.0667 90.1258 49.2C89.1258 48.3333 88.6258 47.15 88.6258 45.65C88.6258 44.0167 89.2924 42.5667 90.6258 41.3C91.9924 40.0667 94.0424 39.0333 96.7758 38.2L97.3758 35.5C96.5424 36.4333 95.6258 37.1333 94.6258 37.6C93.6591 38.0667 92.5758 38.3 91.3758 38.3C89.7091 38.3 88.3924 37.7833 87.4258 36.75C86.4924 35.6833 86.0258 34.2 86.0258 32.3C86.0258 31.8667 86.0591 31.3833 86.1258 30.85C86.1924 30.2833 86.2924 29.6833 86.4258 29.05L89.8258 13H97.0258L93.4258 30C93.3924 30.2 93.3591 30.4167 93.3258 30.65C93.2924 30.85 93.2758 31.05 93.2758 31.25C93.2758 31.95 93.3924 32.5 93.6258 32.9C93.8924 33.2667 94.2758 33.45 94.7758 33.45ZM96.2758 40.7C94.6091 41.3333 93.3758 41.9833 92.5758 42.65C91.7758 43.35 91.3758 44.1167 91.3758 44.95C91.3758 45.3833 91.5424 45.7667 91.8758 46.1C92.2091 46.4333 92.6091 46.6 93.0758 46.6C93.6424 46.6 94.1924 46.2 94.7258 45.4C95.2591 44.6 95.6758 43.5167 95.9758 42.15L96.2758 40.7ZM126.992 15.3V15.65L127.542 13H134.742L131.142 30C131.076 30.3 131.026 30.5833 130.992 30.85C130.959 31.0833 130.942 31.3333 130.942 31.6C130.942 32.3333 131.109 32.8833 131.442 33.25C131.776 33.5833 132.292 33.75 132.992 33.75C133.859 33.75 134.642 33.35 135.342 32.55C136.042 31.7167 136.609 30.55 137.042 29.05H139.142C138.076 32.1167 136.692 34.4333 134.992 36C133.292 37.5333 131.326 38.3 129.092 38.3C127.659 38.3 126.509 37.9 125.642 37.1C124.809 36.3 124.326 35.1667 124.192 33.7C123.159 35.2333 122.009 36.3833 120.742 37.15C119.509 37.9167 118.176 38.3 116.742 38.3C114.676 38.3 113.042 37.6 111.842 36.2C110.676 34.8 110.092 32.8167 110.092 30.25C110.092 28.3833 110.376 26.4333 110.942 24.4C111.509 22.3667 112.292 20.5167 113.292 18.85C114.526 16.8833 115.959 15.3833 117.592 14.35C119.226 13.2833 121.009 12.75 122.942 12.75C124.242 12.75 125.242 12.9833 125.942 13.45C126.642 13.8833 126.992 14.5 126.992 15.3ZM126.542 17.75C126.542 17.25 126.359 16.8167 125.992 16.45C125.626 16.05 125.126 15.85 124.492 15.85C122.659 15.85 121.026 17.3833 119.592 20.45C118.192 23.5167 117.492 26.55 117.492 29.55C117.492 30.85 117.676 31.8333 118.042 32.5C118.409 33.1333 119.059 33.45 119.992 33.45C120.859 33.45 121.692 33.0333 122.492 32.2C123.326 31.3667 123.876 30.3167 124.142 29.05L126.542 17.75Z" fill="url(#paint0_linear_101_6)"/>
<defs>
<linearGradient id="paint0_linear_101_6" x1="68.6791" y1="-63" x2="68.6791" y2="92" gradientUnits="userSpaceOnUse">
<stop stop-color="#AF05E6"/>
<stop offset="1" stop-color="#5400C9" stop-opacity="0.88"/>
</linearGradient>
</defs>
</svg>
