<svg width="181" height="36" viewBox="0 0 181 36" fill="none" xmlns="http://www.w3.org/2000/svg">
<path d="M18.95 0.299998L33.75 35.7H29.5L17.95 5.05L18.95 0.299998ZM8.2 32.35C7.96667 33.0167 7.93333 33.5833 8.1 34.05C8.26667 34.5167 8.53333 34.8833 8.9 35.15C9.3 35.3833 9.7 35.5 10.1 35.5H10.55V36H0.5V35.5C0.5 35.5 0.583333 35.5 0.75 35.5C0.883333 35.5 0.95 35.5 0.95 35.5C1.71667 35.5 2.5 35.2667 3.3 34.8C4.13333 34.3 4.81667 33.4833 5.35 32.35H8.2ZM18.95 0.299998L19.4 3.8L6.85 35.85H3.85L16.65 5.45C16.65 5.45 16.7333 5.25 16.9 4.85C17.1 4.41666 17.3167 3.9 17.55 3.3C17.8167 2.7 18.0333 2.11666 18.2 1.55C18.4 0.983332 18.5 0.566665 18.5 0.299998H18.95ZM26 22.35V23.85H10.35V22.35H26ZM28.25 32.35H32.35C32.85 33.4833 33.5167 34.3 34.35 34.8C35.1833 35.2667 35.9833 35.5 36.75 35.5C36.75 35.5 36.8167 35.5 36.95 35.5C37.0833 35.5 37.15 35.5 37.15 35.5V36H25.9V35.5H26.35C26.9833 35.5 27.55 35.2333 28.05 34.7C28.55 34.1333 28.6167 33.35 28.25 32.35ZM56.0457 6C59.3457 6 62.1957 6.6 64.5957 7.8C66.9957 9 68.8457 10.7333 70.1457 13C71.4457 15.2333 72.0957 17.9 72.0957 21C72.0957 24.1 71.4457 26.7667 70.1457 29C68.8457 31.2333 66.9957 32.9667 64.5957 34.2C62.1957 35.4 59.3457 36 56.0457 36H45.3957L45.2957 34.5C47.629 34.5 49.579 34.5 51.1457 34.5C52.7457 34.5 53.9624 34.5 54.7957 34.5C55.629 34.5 56.0457 34.5 56.0457 34.5C59.9124 34.5 62.9457 33.3 65.1457 30.9C67.379 28.4667 68.4957 25.1667 68.4957 21C68.4957 16.8333 67.379 13.55 65.1457 11.15C62.9457 8.71666 59.9124 7.5 56.0457 7.5C56.0457 7.5 55.6124 7.5 54.7457 7.5C53.879 7.5 52.6124 7.5 50.9457 7.5C49.279 7.5 47.229 7.5 44.7957 7.5V6H56.0457ZM46.0957 6V36H42.8457V6H46.0957ZM42.9457 32.75V36H39.3457V35.5C39.3457 35.5 39.4457 35.5 39.6457 35.5C39.879 35.5 39.9957 35.5 39.9957 35.5C40.7957 35.5 41.4624 35.2333 41.9957 34.7C42.529 34.1333 42.8124 33.4833 42.8457 32.75H42.9457ZM42.9457 9.25H42.8457C42.8124 8.45 42.5124 7.8 41.9457 7.3C41.4124 6.76667 40.7457 6.5 39.9457 6.5C39.9457 6.5 39.8457 6.5 39.6457 6.5C39.4457 6.5 39.3457 6.5 39.3457 6.5V6H42.9457V9.25ZM83.8516 6V36H80.7016V6H83.8516ZM80.8516 32.8V36H76.6016V35.5C76.6016 35.5 76.7182 35.5 76.9516 35.5C77.1849 35.5 77.3016 35.5 77.3016 35.5C78.2349 35.5 79.0182 35.2333 79.6516 34.7C80.3182 34.1667 80.6682 33.5333 80.7016 32.8H80.8516ZM83.7016 32.8H83.8516C83.8849 33.5333 84.2182 34.1667 84.8516 34.7C85.5182 35.2333 86.3182 35.5 87.2516 35.5C87.2516 35.5 87.3516 35.5 87.5516 35.5C87.7849 35.5 87.9016 35.5 87.9016 35.5L87.9516 36H83.7016V32.8ZM83.7016 9.2V6H87.9516L87.9016 6.5C87.9016 6.5 87.7849 6.5 87.5516 6.5C87.3516 6.5 87.2516 6.5 87.2516 6.5C86.3182 6.5 85.5182 6.76667 84.8516 7.3C84.2182 7.8 83.8849 8.43333 83.8516 9.2H83.7016ZM80.8516 9.2H80.7016C80.6682 8.43333 80.3182 7.8 79.6516 7.3C79.0182 6.76667 78.2349 6.5 77.3016 6.5C77.2682 6.5 77.1349 6.5 76.9016 6.5C76.7016 6.5 76.6016 6.5 76.6016 6.5V6H80.8516V9.2ZM106.748 6.15V36H103.498V6.15H106.748ZM118.848 5.95V7.45H91.3984V5.95H118.848ZM118.848 7.35V10.8H118.298V10C118.298 9.3 118.065 8.71667 117.598 8.25C117.165 7.75 116.565 7.48333 115.798 7.45V7.35H118.848ZM118.848 5.15V6.45L113.248 5.95C113.915 5.95 114.615 5.91667 115.348 5.85C116.115 5.75 116.815 5.63333 117.448 5.5C118.082 5.36667 118.548 5.25 118.848 5.15ZM103.598 32.8V36H99.9484V35.5C99.9818 35.5 100.082 35.5 100.248 35.5C100.448 35.5 100.548 35.5 100.548 35.5C101.348 35.5 102.032 35.2333 102.598 34.7C103.165 34.1667 103.465 33.5333 103.498 32.8H103.598ZM106.598 32.8H106.748C106.782 33.5333 107.082 34.1667 107.648 34.7C108.215 35.2333 108.898 35.5 109.698 35.5C109.698 35.5 109.782 35.5 109.948 35.5C110.148 35.5 110.248 35.5 110.248 35.5V36H106.598V32.8ZM94.4484 7.35V7.45C93.6818 7.48333 93.0651 7.75 92.5984 8.25C92.1651 8.71667 91.9484 9.3 91.9484 10V10.8H91.3984V7.35H94.4484ZM91.3984 5.15C91.6984 5.25 92.1484 5.36667 92.7484 5.5C93.3818 5.63333 94.0818 5.75 94.8484 5.85C95.6151 5.91667 96.3318 5.95 96.9984 5.95L91.3984 6.45V5.15ZM127.493 6.05L136.743 22.5L134.693 24.25L123.143 6.05H127.493ZM137.493 23.1V36H134.243V23.1H137.493ZM145.893 6.05H149.043L137.143 24.15L135.293 23.6L145.893 6.05ZM143.993 9.2C144.36 8.53333 144.376 7.91666 144.043 7.35C143.71 6.78333 143.176 6.5 142.443 6.5C142.443 6.5 142.343 6.5 142.143 6.5C141.943 6.5 141.843 6.5 141.843 6.5V6H152.293V6.5H151.693C150.76 6.5 149.876 6.76667 149.043 7.3C148.243 7.8 147.61 8.38333 147.143 9.05L143.993 9.2ZM129.243 9.15L124.993 9C124.46 8.23333 123.793 7.63333 122.993 7.2C122.226 6.73333 121.36 6.5 120.393 6.5H119.793V6H131.393V6.5C131.393 6.5 131.293 6.5 131.093 6.5C130.893 6.5 130.793 6.5 130.793 6.5C130.06 6.5 129.526 6.8 129.193 7.4C128.893 7.96667 128.91 8.55 129.243 9.15ZM134.393 32.8V36H130.743V35.5C130.776 35.5 130.876 35.5 131.043 35.5C131.243 35.5 131.343 35.5 131.343 35.5C132.143 35.5 132.81 35.2333 133.343 34.7C133.91 34.1667 134.21 33.5333 134.243 32.8H134.393ZM137.343 32.8H137.493C137.526 33.5333 137.81 34.1667 138.343 34.7C138.91 35.2333 139.593 35.5 140.393 35.5C140.393 35.5 140.493 35.5 140.693 35.5C140.893 35.5 140.993 35.5 140.993 35.5V36H137.343V32.8ZM164.333 5.3L178.083 35.7H174.133L163.483 9.75L164.333 5.3ZM154.683 32.35C154.317 33.35 154.367 34.1333 154.833 34.7C155.3 35.2333 155.833 35.5 156.433 35.5H156.833V36H147.283V35.5C147.283 35.5 147.35 35.5 147.483 35.5C147.617 35.5 147.683 35.5 147.683 35.5C148.383 35.5 149.1 35.2667 149.833 34.8C150.567 34.3 151.2 33.4833 151.733 32.35H154.683ZM164.333 5.3L164.683 8.75L153.233 35.85H150.083L161.933 10.45C161.933 10.45 162.017 10.25 162.183 9.85C162.383 9.45 162.6 8.96667 162.833 8.4C163.1 7.8 163.333 7.21666 163.533 6.65C163.733 6.08333 163.85 5.63333 163.883 5.3H164.333ZM170.233 24.35V25.85H156.983V24.35H170.233ZM172.783 32.35H176.583C177.083 33.4833 177.7 34.3 178.433 34.8C179.167 35.2667 179.867 35.5 180.533 35.5C180.533 35.5 180.6 35.5 180.733 35.5C180.867 35.5 180.933 35.5 180.933 35.5V36H170.683V35.5H171.083C171.65 35.5 172.167 35.2333 172.633 34.7C173.1 34.1333 173.15 33.35 172.783 32.35Z" fill="url(#paint0_linear_101_6)"/>
<defs>
<linearGradient id="paint0_linear_101_6" x1="93.5674" y1="-62" x2="93.5674" y2="93" gradientUnits="userSpaceOnUse">
<stop stop-color="#AF05E6"/>
<stop offset="1" stop-color="#5400C9" stop-opacity="0.88"/>
</linearGradient>
</defs>
</svg>
